<svg width="1200" height="1200" viewBox="0 0 1200 1200" fill="none" xmlns="http://www.w3.org/2000/svg">
<g clip-path="url(#clip0_193_207)">
<path d="M1197 0H3C1.34315 0 0 1.34315 0 3V1197C0 1198.66 1.34315 1200 3 1200H1197C1198.66 1200 1200 1198.66 1200 1197V3C1200 1.34315 1198.66 0 1197 0Z" fill="#EAEAEA" fill-opacity="0.01"/>
<g opacity="0.5">
<g opacity="0.5">
<path d="M600.001 850C461.929 850 350 738.071 350 600.001C350 461.929 461.929 350 600.001 350C738.071 350 850 461.929 850 600.001C850 738.071 738.071 850 600.001 850Z" fill="#FAFAFA" fill-opacity="0.1"/>
<path d="M600.001 850C461.929 850 350 738.071 350 600.001C350 461.929 461.929 350 600.001 350C738.071 350 850 461.929 850 600.001C850 738.071 738.071 850 600.001 850Z" stroke="#C9C9C9" stroke-width="2.418"/>
</g>
<path d="M600.001 703.982C542.572 703.982 496.018 657.428 496.018 600.001C496.018 542.572 542.572 496.018 600.001 496.018C657.428 496.018 703.982 542.572 703.982 600.001C703.982 657.428 657.428 703.982 600.001 703.982Z" fill="white"/>
<mask id="mask0_193_207" style="mask-type:luminance" maskUnits="userSpaceOnUse" x="564" y="564" width="72" height="72">
<path d="M564.602 564.602H635.398V635.398H564.602V564.602Z" fill="white"/>
</mask>
<g mask="url(#mask0_193_207)">
<path fill-rule="evenodd" clip-rule="evenodd" d="M628.761 575.663H571.24V605.264L577.742 598.76L578.714 597.789H595.307L595.443 597.653L610.929 582.167H615.622L628.761 595.307V575.663ZM600.004 602.479L606.771 609.247L609.119 611.593L604.425 616.287L602.079 613.939L592.564 604.425H581.464L571.374 614.516L571.24 614.649V619.912C571.24 621.085 571.707 622.211 572.536 623.041C573.366 623.87 574.492 624.337 575.665 624.337H624.336C625.51 624.337 626.635 623.87 627.465 623.041C628.295 622.211 628.761 621.085 628.761 619.912V604.693L613.275 589.206L600.134 602.347L600.004 602.479ZM564.602 612.437V619.912C564.602 621.365 564.888 622.803 565.444 624.145C566 625.488 566.815 626.707 567.842 627.734C568.869 628.761 570.089 629.576 571.431 630.132C572.774 630.688 574.212 630.974 575.665 630.974H624.336C625.789 630.974 627.228 630.688 628.57 630.132C629.912 629.576 631.132 628.761 632.159 627.734C633.186 626.707 634.001 625.487 634.557 624.145C635.112 622.803 635.398 621.365 635.398 619.912V606.905L637.879 604.425L635.534 602.078L635.398 601.944V569.026H564.602V611.901L564.334 612.168L564.602 612.437Z" fill="#666666"/>
</g>
<path d="M600.001 703.982C542.572 703.982 496.018 657.428 496.018 600.001C496.018 542.572 542.572 496.018 600.001 496.018C657.428 496.018 703.982 542.572 703.982 600.001C703.982 657.428 657.428 703.982 600.001 703.982Z" stroke="#C9C9C9" stroke-width="2.418"/>
</g>
</g>
<defs>
<clipPath id="clip0_193_207">
<rect width="1200" height="1200" fill="white"/>
</clipPath>
</defs>
</svg>
